<svg width="1200" height="630" viewBox="0 0 1200 630" xmlns="http://www.w3.org/2000/svg">
  <!-- 그라데이션 배경 -->
  <defs>
    <linearGradient id="bg" x1="0" y1="0" x2="1" y2="1">
      <stop offset="0%" stop-color="#f0f8ff"/>
      <stop offset="100%" stop-color="#e8f5e9"/>
    </linearGradient>
  </defs>
  <rect width="1200" height="630" fill="url(#bg)"/>
  
  <!-- 7가지 색상의 피크민 -->
  <g transform="translate(100, 215)">
    <!-- 빨강 피크민 -->
    <g transform="translate(0,0)">
      <path d="M50 100c-16 0-30-19-30-34 0-16 13-30 30-30s30 14 30 30c0 15-14 34-30 34z" fill="#ff4444"/>
      <circle cx="42" cy="62" r="3" fill="white"/>
      <circle cx="58" cy="62" r="3" fill="white"/>
      <path d="M50 35c-6-7-6-15 0-19 6-4 12 0 15 4 3-4 9-8 15-4 6 4 6 12 0 19z" fill="#4caf50"/>
      <path d="M40 70l7 7 16-16" stroke="#4caf50" stroke-width="3" fill="none" stroke-linecap="round"/>
    </g>
    
    <!-- 노랑 피크민 -->
    <g transform="translate(120,0)">
      <path d="M50 100c-16 0-30-19-30-34 0-16 13-30 30-30s30 14 30 30c0 15-14 34-30 34z" fill="#ffeb3b"/>
      <circle cx="42" cy="62" r="3" fill="white"/>
      <circle cx="58" cy="62" r="3" fill="white"/>
      <path d="M50 35c-6-7-6-15 0-19 6-4 12 0 15 4 3-4 9-8 15-4 6 4 6 12 0 19z" fill="#4caf50"/>
      <path d="M40 70l7 7 16-16" stroke="#4caf50" stroke-width="3" fill="none" stroke-linecap="round"/>
    </g>
    
    <!-- 파랑 피크민 -->
    <g transform="translate(240,0)">
      <path d="M50 100c-16 0-30-19-30-34 0-16 13-30 30-30s30 14 30 30c0 15-14 34-30 34z" fill="#2196f3"/>
      <circle cx="42" cy="62" r="3" fill="white"/>
      <circle cx="58" cy="62" r="3" fill="white"/>
      <path d="M50 35c-6-7-6-15 0-19 6-4 12 0 15 4 3-4 9-8 15-4 6 4 6 12 0 19z" fill="#4caf50"/>
      <path d="M40 70l7 7 16-16" stroke="#4caf50" stroke-width="3" fill="none" stroke-linecap="round"/>
    </g>
    
    <!-- 보라 피크민 -->
    <g transform="translate(360,0)">
      <path d="M50 100c-16 0-30-19-30-34 0-16 13-30 30-30s30 14 30 30c0 15-14 34-30 34z" fill="#9c27b0"/>
      <circle cx="42" cy="62" r="3" fill="white"/>
      <circle cx="58" cy="62" r="3" fill="white"/>
      <path d="M50 35c-6-7-6-15 0-19 6-4 12 0 15 4 3-4 9-8 15-4 6 4 6 12 0 19z" fill="#4caf50"/>
      <path d="M40 70l7 7 16-16" stroke="#4caf50" stroke-width="3" fill="none" stroke-linecap="round"/>
    </g>
    
    <!-- 하양 피크민 -->
    <g transform="translate(480,0)">
      <path d="M50 100c-16 0-30-19-30-34 0-16 13-30 30-30s30 14 30 30c0 15-14 34-30 34z" fill="#f5f5f5" stroke="#ddd"/>
      <circle cx="42" cy="62" r="3" fill="#666"/>
      <circle cx="58" cy="62" r="3" fill="#666"/>
      <path d="M50 35c-6-7-6-15 0-19 6-4 12 0 15 4 3-4 9-8 15-4 6 4 6 12 0 19z" fill="#4caf50"/>
      <path d="M40 70l7 7 16-16" stroke="#4caf50" stroke-width="3" fill="none" stroke-linecap="round"/>
    </g>
    
    <!-- 분홍 피크민 -->
    <g transform="translate(600,0)">
      <path d="M50 100c-16 0-30-19-30-34 0-16 13-30 30-30s30 14 30 30c0 15-14 34-30 34z" fill="#ff80ab"/>
      <circle cx="42" cy="62" r="3" fill="white"/>
      <circle cx="58" cy="62" r="3" fill="white"/>
      <path d="M50 35c-6-7-6-15 0-19 6-4 12 0 15 4 3-4 9-8 15-4 6 4 6 12 0 19z" fill="#4caf50"/>
      <path d="M40 70l7 7 16-16" stroke="#4caf50" stroke-width="3" fill="none" stroke-linecap="round"/>
    </g>
    
    <!-- 회색 피크민 -->
    <g transform="translate(720,0)">
      <path d="M50 100c-16 0-30-19-30-34 0-16 13-30 30-30s30 14 30 30c0 15-14 34-30 34z" fill="#9e9e9e"/>
      <circle cx="42" cy="62" r="3" fill="white"/>
      <circle cx="58" cy="62" r="3" fill="white"/>
      <path d="M50 35c-6-7-6-15 0-19 6-4 12 0 15 4 3-4 9-8 15-4 6 4 6 12 0 19z" fill="#4caf50"/>
      <path d="M40 70l7 7 16-16" stroke="#4caf50" stroke-width="3" fill="none" stroke-linecap="round"/>
    </g>
  </g>
  
  <!-- 텍스트 -->
  <text x="600" y="450" font-family="Arial" font-size="48" font-weight="bold" text-anchor="middle" fill="#333">
    피크민 블룸 체크리스트
  </text>
  <text x="600" y="520" font-family="Arial" font-size="24" text-anchor="middle" fill="#666">
    디코레이션 수집 현황을 한눈에!
  </text>
</svg> 